#N canvas 827 239 734 565 12;
#X obj 508 42 cnv 15 370 178 empty empty current 20 12 0 14 #b7b7b7 #373737 0;
#X msg 578 141 /run_pipeline Vindemiatrix Sadachbia;
#X obj 304 327 osc.send 10001;
#X msg 324 274 /reload_and_play;
#X msg 394 192 /run_pipeline;
#X obj 304 69 osc.receive 12001;
#X obj 421 115 print;
#X obj 324 245 delay 1000;
#X obj 304 115 osc.route /reply;
#X obj 304 141 sel 1;
#X msg 304 172 /stop;
#X obj 219 359 osc.send 192.168.3.29 10001;
#X obj 324 213 t b;
#X msg 219 172 /stop;
#X msg 687 327 /run_pipeline Aoede Callirrhoe;
#X msg 687 291 /run_pipeline Autonoe Umbriel;
#X msg 687 260 /run_pipeline Erinome Algenib;
#X msg 578 172 /run_pipeline Schedar Gacrux;
#X msg 576 80 /run_pipeline Zubenelgenubi Vindemiatrix;
#X msg 394 157 /reload_configs;
#X msg 687 359 /run_pipeline Charon Fenrir;
#X msg 576 52 /run_pipeline Vindemiatrix Zubenelgenubi;
#X msg 693 432 /cancel_pipelne;
#X obj 917 418 print;
#X msg 459 245 /reload_configs ./app_config_en.toml;
#X obj 472 385 osc.send 10000;
#X obj 394 418 osc.send 192.168.3.29 10000;
#X obj 917 359 osc.receive 12000;
#X connect 1 0 25 0;
#X connect 3 0 2 0;
#X connect 3 0 11 0;
#X connect 4 0 25 0;
#X connect 4 0 26 0;
#X connect 5 0 6 0;
#X connect 5 0 8 0;
#X connect 7 0 3 0;
#X connect 8 0 9 0;
#X connect 9 0 10 0;
#X connect 10 0 2 0;
#X connect 10 0 11 0;
#X connect 10 0 12 0;
#X connect 12 0 7 0;
#X connect 13 0 11 0;
#X connect 14 0 25 0;
#X connect 15 0 25 0;
#X connect 16 0 25 0;
#X connect 17 0 25 0;
#X connect 18 0 25 0;
#X connect 19 0 25 0;
#X connect 20 0 25 0;
#X connect 20 0 26 0;
#X connect 21 0 25 0;
#X connect 22 0 25 0;
#X connect 24 0 25 0;
#X connect 24 0 26 0;
#X connect 27 0 23 0;
